<svg xmlns="http://www.w3.org/2000/svg" viewBox="0 0 64 64" shape-rendering="crispEdges">
  <polygon points="32,2 62,16 32,30 2,16" fill="#7cbd56"/>
  <polygon points="32,2 62,16 32,30 2,16" fill="none" stroke="#5c9a3d" stroke-width="1.5"/>
  <polygon points="17,13 22,15.5 17,18 12,15.5" fill="#6fae4b"/>
  <polygon points="44,10 49,12.5 44,15 39,12.5" fill="#8ccb63"/>
  <polygon points="47,19 52,21.5 47,24 42,21.5" fill="#6fae4b"/>
  <polygon points="2,16 32,30 32,62 2,46" fill="#7a5230"/>
  <polygon points="2,16 32,30 32,35 2,21" fill="#6b4427"/>
  <rect x="11" y="34" width="5" height="5" fill="#6b4427"/>
  <rect x="20" y="46" width="5" height="5" fill="#8a623c"/>
  <polygon points="32,30 62,16 62,46 32,62" fill="#8a623c"/>
  <polygon points="32,30 62,16 62,21 32,35" fill="#7a5230"/>
  <rect x="42" y="34" width="5" height="5" fill="#7a5230"/>
  <rect x="50" y="41" width="5" height="5" fill="#9a724a"/>
  <text x="32" y="34" font-family="Arial, Helvetica, sans-serif" font-size="30" font-weight="bold"
        fill="#e22020" stroke="#7a0d0d" stroke-width="0.8"
        text-anchor="middle" dominant-baseline="middle">AI</text>
</svg>
